<svg xmlns="http://www.w3.org/2000/svg" width="16" height="16" fill="none" xmlns:v="https://vecta.io/nano"><path d="M7.984.063L11.25.11c.72.03 1.36.156 1.922.375.542.208 1 .5 1.406.906s.698.865.906 1.406c.22.563.344 1.203.375 1.922l.047 3.266-.047 3.266c-.03.72-.156 1.36-.375 1.922-.208.542-.5 1-.906 1.406s-.865.698-1.406.906c-.562.22-1.203.344-1.922.375l-3.266.047a91.88 91.88 0 0 1-3.266-.047c-.72-.03-1.36-.156-1.922-.375-.542-.208-1-.5-1.406-.906s-.698-.865-.906-1.406C.266 12.61.14 11.97.11 11.25L.063 7.984.11 4.72C.14 4 .266 3.36.484 2.797c.208-.542.5-1 .906-1.406S2.255.693 2.797.484C3.36.266 4 .14 4.72.11L7.984.063zm0 1.03l-3.39.047c-.562.02-1.083.12-1.562.297a2.85 2.85 0 0 0-1.594 1.594c-.177.48-.276 1-.297 1.563l-.047 3.39.047 3.39c.02.563.12 1.083.297 1.563a2.85 2.85 0 0 0 1.594 1.594c.48.177 1 .276 1.563.297l3.39.047 3.39-.047c.563-.02 1.083-.12 1.563-.297a2.85 2.85 0 0 0 1.594-1.594c.177-.48.276-1 .297-1.562l.047-3.39-.047-3.39c-.02-.562-.12-1.083-.297-1.562a2.85 2.85 0 0 0-1.594-1.594c-.48-.177-1-.276-1.562-.297l-3.39-.047zm0 10.062c.875 0 1.622-.3 2.242-.93s.93-1.367.93-2.242-.3-1.622-.93-2.242-1.367-.93-2.242-.93-1.622.3-2.242.93-.93 1.367-.93 2.242.3 1.622.93 2.242 1.367.93 2.242.93zm0-7.234c1.125 0 2.083.396 2.875 1.188s1.188 1.75 1.188 2.875-.396 2.083-1.187 2.875-1.75 1.188-2.875 1.188S5.9 11.65 5.11 10.86 3.922 9.11 3.922 7.984 4.318 5.9 5.11 5.11s1.75-1.187 2.875-1.187zm5.188-.156a.89.89 0 0 1-.281.664.95.95 0 0 1-.687.273c-.26 0-.482-.09-.664-.273s-.274-.404-.274-.664a.95.95 0 0 1 .274-.687.89.89 0 0 1 .664-.281.93.93 0 0 1 .68.289.93.93 0 0 1 .289.68z" fill="#666"/></svg>